<svg width="35" height="35" viewBox="0 0 35 35" fill="none" xmlns="http://www.w3.org/2000/svg">
<path fill-rule="evenodd" clip-rule="evenodd" d="M17.5 35C27.165 35 35 27.165 35 17.5C35 7.83502 27.165 0 17.5 0C7.83502 0 0 7.83502 0 17.5C0 27.165 7.83502 35 17.5 35ZM21.8291 24.9254L17.1384 20.1229L12.4473 24.9254C11.9727 25.4109 11.6665 25.4159 11.1914 24.9254L10.2508 23.9616C9.78473 23.4897 9.75846 23.1799 10.2508 22.6759L15.2168 17.5921L10.2508 12.5087C9.78473 12.0309 9.77612 11.7085 10.2508 11.2225L11.1919 10.2592C11.6801 9.7592 11.9817 9.7823 12.4478 10.2592L17.1384 15.0613L21.8296 10.2587C22.2956 9.78185 22.5972 9.75875 23.0855 10.2587L24.0266 11.2221C24.5008 11.708 24.4917 12.0305 24.0266 12.5083L19.0601 17.5921L24.0261 22.6759C24.5184 23.1799 24.4872 23.4897 24.0261 23.9616L23.085 24.9254C22.6058 25.4159 22.2997 25.4109 21.8291 24.9254Z" fill="#5073B3"/>
</svg>
