<svg width="42" height="42" viewBox="0 0 42 42" fill="none" xmlns="http://www.w3.org/2000/svg">
    <path fill-rule="evenodd" clip-rule="evenodd" d="M21 42C32.598 42 42 32.598 42 21C42 9.40202 32.598 0 21 0C9.40202 0 0 9.40202 0 21C0 32.598 9.40202 42 21 42ZM22.4336 25.7656H20.2959V28H22.4336V25.7656ZM17.9863 13.4336C17.1126 14.3717 16.6758 15.6143 16.6758 17.1611H18.5879C18.6237 16.2301 18.7705 15.5176 19.0283 15.0234C19.4867 14.1354 20.3138 13.6914 21.5098 13.6914C22.4766 13.6914 23.1676 13.9492 23.583 14.4648C24.0055 14.9805 24.2168 15.5892 24.2168 16.291C24.2168 16.7923 24.0736 17.2757 23.7871 17.7412C23.6296 18.0062 23.4219 18.2604 23.1641 18.5039L22.3047 19.3525C21.4811 20.1618 20.9476 20.8815 20.7041 21.5117C20.4606 22.1348 20.3389 22.9583 20.3389 23.9824H22.251C22.251 23.0801 22.3512 22.3997 22.5518 21.9414C22.7594 21.4759 23.207 20.9102 23.8945 20.2441C24.8398 19.3275 25.4665 18.6328 25.7744 18.1602C26.0895 17.6875 26.2471 17.0716 26.2471 16.3125C26.2471 15.0592 25.821 14.0316 24.9688 13.2295C24.1237 12.4202 22.9958 12.0156 21.585 12.0156C20.0596 12.0156 18.86 12.4883 17.9863 13.4336Z" fill="#EB5757" />
</svg>